<svg xmlns="http://www.w3.org/2000/svg" viewBox="0 0 1058 1058" role="img" aria-labelledby="title">
  <title id="title">Logo AEBES</title>
  <g fill="#86151d">
    <path d="M531 70c37-48 111-42 156-31 114 27 177 99 176 218-2 183-118 350-313 437-75-40-153-100-215-168 96-39 181-89 247-149 68-62 113-132 114-204 1-67-26-103-75-103-29 0-59 5-90 0z"/>
    <path d="M216 275c0-119 100-198 227-198 94 0 163 45 181 119-52-20-99-34-134-23-34 11-44 42-29 82 17 47 55 102 107 141-55 37-139 63-265 77-57-67-87-135-87-198z"/>
  </g>
  <g fill="#006166">
    <path d="M66 320c-4-22 3-24 13-18 24 15 42 104 78 169 52 94 135 159 244 221 51 29 91 51 117 86 4 83-6 179-22 273H268c46-61 91-125 94-180 3-51-15-73-52-100C176 674 91 539 66 320z"/>
    <path d="M992 320c4-22-3-24-13-18-24 15-42 104-78 169-52 94-135 159-244 221-51 29-91 51-117 86-4 83 6 179 22 273h228c-46-61-91-125-94-180-3-51 15-73 52-100 134-97 219-232 244-451z"/>
  </g>
</svg>
